<svg id="レイヤー_1" data-name="レイヤー 1" xmlns="http://www.w3.org/2000/svg" viewBox="0 0 400 40"><title>logo</title><polygon points="232.66 25.5 232.66 22.14 254.59 22.14 254.59 25.39 248.47 25.39 248.47 32.66 254.53 32.66 254.53 36.38 232.7 36.38 232.7 32.71 239.03 32.71 239.03 25.5 232.66 25.5 232.66 25.5 232.66 25.5"/><polygon points="279.53 18.3 289.55 29.97 279.67 26.62 279.4 27.1 279.19 31.73 270.49 31.73 270.26 24.45 262.11 30.21 256.16 30.23 255.83 29.64 272.43 13.23 272.24 12.78 255.71 12.78 255.5 9.13 270.12 9.13 270.57 6.42 279.1 6.42 279.54 8.93 289.53 8.93 279.53 18.3 279.53 18.3 279.53 18.3"/><polygon points="344.89 8.19 371.81 8.19 363.38 31.92 355.21 31.92 358.67 21.95 354.15 21.95 353.92 19.69 359.5 19.69 362.5 11.25 355.61 11.25 351.17 23.55 339.5 23.55 344.89 8.19 344.89 8.19 344.89 8.19"/><polygon points="291.88 34.52 291.88 10.9 300.81 10.9 300.81 28.42 306.58 24.95 307.29 24.48 315.84 21.85 324.53 21.92 324.81 22.44 322.6 24.13 307.57 33.34 302.56 34.54 291.88 34.52 291.88 34.52 291.88 34.52"/><polygon points="222.18 32.41 199.08 32.41 199.08 27.42 215.23 27.42 230.21 7.43 230.65 7.56 230.83 8.96 230.85 18.55 228.41 24.45 222.18 32.41 222.18 32.41 222.18 32.41"/><polygon points="216.87 21.2 201.8 21.2 201.8 16.66 216.87 16.66 216.87 21.2 216.87 21.2 216.87 21.2"/><polygon points="214.22 8.71 214.22 13.21 199.14 13.21 199.14 8.71 214.22 8.71 214.22 8.71 214.22 8.71"/><polygon points="240.22 15.6 233.53 15.6 233.53 5.32 240.22 5.32 240.22 15.6 240.22 15.6 240.22 15.6"/><polygon points="249.59 17.43 242.9 17.43 242.9 7.15 249.59 7.15 249.59 17.43 249.59 17.43 249.59 17.43"/><polygon points="106.95 13.69 100.27 13.69 100.27 3.4 106.95 3.4 106.95 13.69 106.95 13.69 106.95 13.69"/><polygon points="116.32 15.51 109.64 15.51 109.64 5.23 116.32 5.23 116.32 15.51 116.32 15.51 116.32 15.51"/><polygon points="338.23 18.08 310.12 18.08 310.12 11.56 338.23 11.56 338.23 18.08 338.23 18.08 338.23 18.08"/><polygon points="396.16 31.15 367.99 31.15 367.99 24.62 396.16 24.62 396.16 31.15 396.16 31.15 396.16 31.15"/><polygon points="3.3 35.2 3.3 29.85 24.03 29.85 24.03 14.5 3.38 14.5 3.38 10.52 35.56 10.52 35.56 35.2 3.3 35.2 3.3 35.2"/><polygon points="139.13 21.65 146.72 28.13 140.82 35.34 132.39 28.25 126.82 33.64 122.48 35.55 114.3 35.43 112.88 35.08 125.77 22.67 119.62 17.42 125.48 10.36 132.54 15.93 137.01 11.64 138.78 10.64 148.91 10.64 149.51 10.82 139.13 21.65 139.13 21.65"/><polygon points="85.24 33.37 75.88 33.37 78.27 20.48 87.54 20.48 87.54 18.33 76.01 18.33 75.89 15.78 87.67 15.78 87.67 8.41 97.12 8.41 97.12 15.68 108.86 15.68 108.86 18.2 97.2 18.2 97.2 33.56 87.87 33.56 87.87 22.29 87.31 22.28 85.24 33.37 85.24 33.37"/><polygon points="99.58 33.32 97.93 20.57 107.25 20.57 108.96 33.32 99.58 33.32 99.58 33.32"/><polygon points="72.97 14.03 64.14 31.83 48.9 31.83 55.34 18.86 39.29 18.86 39.29 14.03 72.97 14.03 72.97 14.03"/><polygon points="39.15 10.23 39.15 6.99 72.11 6.99 72.11 10.23 39.15 10.23 39.15 10.23"/><polygon points="176.05 33.48 152.05 33.48 152.05 28.29 168.83 28.29 184.4 7.53 184.85 7.67 185.03 9.12 185.06 19.08 183.59 23.48 176.05 33.48 176.05 33.48"/><polygon points="170.54 21.84 154.88 21.84 154.88 17.12 170.54 17.12 170.54 21.84 170.54 21.84"/><polygon points="167.79 8.86 167.79 13.53 152.12 13.53 152.12 8.86 167.79 8.86 167.79 8.86"/></svg>