<svg id="レイヤー_1" data-name="レイヤー 1" xmlns="http://www.w3.org/2000/svg" viewBox="0 0 700 60"><title>logo</title><polygon points="424.15 39.98 424.15 34.72 458.44 34.72 458.44 39.8 448.88 39.8 448.88 51.18 458.37 51.18 458.37 57 424.21 57 424.21 51.26 434.1 51.26 434.1 39.98 424.15 39.98 424.15 39.98"/><polygon points="272.63 23.42 261.59 23.42 253.6 45.38 233.57 45.38 241.49 23.19 233.89 23.19 233.89 19.23 242.88 19.23 247 8.5 266.81 8.5 263.34 19.18 283.38 19.18 283.38 45.56 272.63 45.56 272.63 23.42 272.63 23.42"/><polygon points="497.47 28.7 513.15 46.97 497.69 41.72 497.27 42.47 496.95 49.72 483.33 49.72 482.97 38.33 470.21 47.34 460.91 47.38 460.39 46.46 486.36 20.77 486.06 20.08 460.21 20.08 459.87 14.37 482.75 14.37 483.46 10.13 496.8 10.13 497.49 14.05 513.12 14.05 497.47 28.7 497.47 28.7"/><polygon points="599.74 12.89 641.85 12.89 628.66 50.02 615.88 50.02 621.29 34.43 614.22 34.43 613.85 30.88 622.59 30.88 627.27 17.68 616.51 17.68 609.55 36.93 591.3 36.93 599.74 12.89 599.74 12.89"/><polygon points="516.79 54.08 516.79 17.13 530.77 17.13 530.77 44.55 539.79 39.12 540.9 38.37 554.27 34.27 567.87 34.37 568.32 35.18 564.85 37.83 541.34 52.24 533.51 54.12 516.79 54.08 516.79 54.08"/><polygon points="287.61 52.11 287.61 15.17 301.6 15.17 301.6 42.58 321.33 33.17 339.14 33.22 306.16 52.16 287.61 52.11 287.61 52.11"/><polygon points="103.36 52.77 89.91 52.77 89.58 45.42 88.61 45.66 81.66 49.61 65.17 49.26 67.26 46.89 97.1 17.29 99.5 15.78 118.31 15.71 116.34 18.12 103.53 34.11 103.58 49.64 103.36 52.77 103.36 52.77"/><polygon points="163.82 37.55 139.06 37.55 139.06 51.01 123.13 51.01 123.13 13.88 138.92 13.88 138.92 30.33 163.82 30.33 163.82 37.55 163.82 37.55"/><polygon points="25.03 15.5 75.02 15.5 68.66 35.78 58.28 35.78 62.09 22.97 25.03 22.97 25.03 15.5 25.03 15.5"/><polygon points="48.59 52.7 30.19 52.7 37.71 28.89 56.16 28.89 48.59 52.7 48.59 52.7"/><polygon points="190.28 56.84 190.28 19.78 205.14 19.78 205.14 46.76 228.96 43.53 229.3 44.17 227.34 45.83 208.14 55.88 204.85 56.79 190.28 56.84 190.28 56.84"/><polygon points="175.4 19.66 185.71 19.66 185.71 27.45 185.69 44.85 185.25 47.43 179.51 56.58 169.14 56.58 174.03 47.53 175.34 42.49 175.4 22.93 175.4 19.66 175.4 19.66"/><polygon points="407.75 50.78 371.6 50.78 371.6 42.98 396.87 42.98 420.31 11.71 420.99 11.91 421.28 14.1 421.31 29.1 417.5 38.33 407.75 50.78 407.75 50.78"/><polygon points="399.44 33.25 375.86 33.25 375.86 26.15 399.44 26.15 399.44 33.25 399.44 33.25"/><polygon points="395.3 13.7 395.3 20.75 371.7 20.75 371.7 13.7 395.3 13.7 395.3 13.7"/><polygon points="155.93 19.31 145.47 19.31 145.47 3.22 155.93 3.22 155.93 19.31 155.93 19.31"/><polygon points="170.59 22.17 160.13 22.17 160.13 6.08 170.59 6.08 170.59 22.17 170.59 22.17"/><polygon points="435.97 24.49 425.51 24.49 425.51 8.4 435.97 8.4 435.97 24.49 435.97 24.49"/><polygon points="450.63 27.35 440.17 27.35 440.17 11.26 450.63 11.26 450.63 27.35 450.63 27.35"/><polygon points="365.67 29.08 326.74 29.08 326.74 20.06 365.67 20.06 365.67 29.08 365.67 29.08"/><polygon points="589.31 28.36 545.33 28.36 545.33 18.17 589.31 18.17 589.31 28.36 589.31 28.36"/><polygon points="679.94 48.81 635.87 48.81 635.87 38.6 679.94 38.6 679.94 48.81 679.94 48.81"/></svg>